<svg width="35" height="34" viewBox="0 0 35 34" fill="none" xmlns="http://www.w3.org/2000/svg">
<path d="M6.5 9C8.76514 31.5 33 2.5 30 33" stroke="#29925F"/>
<path d="M18.234 4.76591C19.8427 6.72272 19.863 9.4067 18.2794 10.7608C16.6958 12.1148 14.1079 11.6262 12.4991 9.66937C10.8904 7.71256 10.8701 5.02858 12.4537 3.67453C14.0373 2.32047 16.6253 2.8091 18.234 4.76591Z" fill="#CD4A00"/>
<path d="M18.4774 10.9079C18.925 12.7986 17.8077 14.6699 15.9818 15.0876C14.156 15.5053 12.313 14.3112 11.8654 12.4205C11.4179 10.5297 12.5352 8.65841 14.361 8.24072C16.1869 7.82303 18.0298 9.01715 18.4774 10.9079Z" fill="#CD4A00"/>
<path d="M22.9721 3.3489C24.0834 5.0156 23.5949 7.32187 21.8808 8.50008C20.1668 9.67829 17.8764 9.28229 16.7651 7.61558C15.6537 5.94887 16.1423 3.64261 17.8563 2.4644C19.5703 1.28619 21.8607 1.68219 22.9721 3.3489Z" fill="#CD4A00"/>
<path d="M24.1923 9.0492C25.0733 11.4334 24.0113 14.0224 21.8203 14.832C19.6294 15.6415 17.1391 14.365 16.2582 11.9808C15.3772 9.59663 16.4392 7.00759 18.6302 6.19805C20.8211 5.38851 23.3114 6.66501 24.1923 9.0492Z" fill="#CD4A00"/>
<path d="M3.15952 15.1777C3.46161 16.0507 3.12842 16.971 2.41532 17.2333C1.70222 17.4956 0.879255 17.0005 0.57717 16.1275C0.275086 15.2546 0.608277 14.3343 1.32137 14.072C2.03447 13.8097 2.85744 14.3047 3.15952 15.1777Z" fill="#CD4A00"/>
<path d="M2.46438 17.3087C2.37781 18.0119 1.75861 18.5102 1.08136 18.4216C0.404109 18.333 -0.0747312 17.6911 0.0118407 16.9879C0.0984125 16.2847 0.717613 15.7864 1.39486 15.875C2.07211 15.9636 2.55095 16.6054 2.46438 17.3087Z" fill="#CD4A00"/>
<path d="M4.95921 15.2936C5.128 16.0044 4.66866 16.731 3.93327 16.9167C3.19787 17.1023 2.46489 16.6767 2.29611 15.9659C2.12733 15.2552 2.58666 14.5285 3.32205 14.3429C4.05745 14.1572 4.79043 14.5829 4.95921 15.2936Z" fill="#CD4A00"/>
<path d="M4.65405 17.3974C4.65312 18.3243 3.96189 19.0749 3.11013 19.0741C2.25838 19.0732 1.56865 18.3212 1.56958 17.3943C1.57051 16.4674 2.26174 15.7167 3.11349 15.7176C3.96525 15.7184 4.65497 16.4705 4.65405 17.3974Z" fill="#CD4A00"/>
</svg>
