<svg width="201" height="98" viewBox="0 0 201 98" fill="none" xmlns="http://www.w3.org/2000/svg">
<path d="M1.992 29V12.2H5.208L12.36 24.056H10.656L17.688 12.2H20.88L20.928 29H17.28L17.256 17.792H17.928L12.312 27.224H10.56L4.824 17.792H5.64V29H1.992ZM28.5139 29V12.2H32.4019V29H28.5139ZM45.5089 29.288C44.1649 29.288 42.8769 29.112 41.6449 28.76C40.4129 28.392 39.4209 27.92 38.6689 27.344L39.9889 24.416C40.7089 24.928 41.5569 25.352 42.5329 25.688C43.5249 26.008 44.5249 26.168 45.5329 26.168C46.3009 26.168 46.9169 26.096 47.3809 25.952C47.8609 25.792 48.2129 25.576 48.4369 25.304C48.6609 25.032 48.7729 24.72 48.7729 24.368C48.7729 23.92 48.5969 23.568 48.2449 23.312C47.8929 23.04 47.4289 22.824 46.8529 22.664C46.2769 22.488 45.6369 22.328 44.9329 22.184C44.2449 22.024 43.5489 21.832 42.8449 21.608C42.1569 21.384 41.5249 21.096 40.9489 20.744C40.3729 20.392 39.9009 19.928 39.5329 19.352C39.1809 18.776 39.0049 18.04 39.0049 17.144C39.0049 16.184 39.2609 15.312 39.7729 14.528C40.3009 13.728 41.0849 13.096 42.1249 12.632C43.1809 12.152 44.5009 11.912 46.0849 11.912C47.1409 11.912 48.1809 12.04 49.2049 12.296C50.2289 12.536 51.1329 12.904 51.9169 13.4L50.7169 16.352C49.9329 15.904 49.1489 15.576 48.3649 15.368C47.5809 15.144 46.8129 15.032 46.0609 15.032C45.3089 15.032 44.6929 15.12 44.2129 15.296C43.7329 15.472 43.3889 15.704 43.1809 15.992C42.9729 16.264 42.8689 16.584 42.8689 16.952C42.8689 17.384 43.0449 17.736 43.3969 18.008C43.7489 18.264 44.2129 18.472 44.7889 18.632C45.3649 18.792 45.9969 18.952 46.6849 19.112C47.3889 19.272 48.0849 19.456 48.7729 19.664C49.4769 19.872 50.1169 20.152 50.6929 20.504C51.2689 20.856 51.7329 21.32 52.0849 21.896C52.4529 22.472 52.6369 23.2 52.6369 24.08C52.6369 25.024 52.3729 25.888 51.8449 26.672C51.3169 27.456 50.5249 28.088 49.4689 28.568C48.4289 29.048 47.1089 29.288 45.5089 29.288ZM56.6856 29L64.1736 12.2H68.0136L75.5256 29H71.4456L65.3016 14.168H66.8376L60.6696 29H56.6856ZM60.4296 25.4L61.4616 22.448H70.1016L71.1576 25.4H60.4296ZM83.5048 29V15.368H78.1288V12.2H92.7688V15.368H87.3928V29H83.5048ZM106.386 29.288C105.058 29.288 103.826 29.072 102.69 28.64C101.57 28.208 100.594 27.6 99.7624 26.816C98.9464 26.032 98.3064 25.112 97.8424 24.056C97.3944 23 97.1704 21.848 97.1704 20.6C97.1704 19.352 97.3944 18.2 97.8424 17.144C98.3064 16.088 98.9544 15.168 99.7864 14.384C100.618 13.6 101.594 12.992 102.714 12.56C103.834 12.128 105.05 11.912 106.362 11.912C107.69 11.912 108.906 12.128 110.01 12.56C111.13 12.992 112.098 13.6 112.914 14.384C113.746 15.168 114.394 16.088 114.858 17.144C115.322 18.184 115.554 19.336 115.554 20.6C115.554 21.848 115.322 23.008 114.858 24.08C114.394 25.136 113.746 26.056 112.914 26.84C112.098 27.608 111.13 28.208 110.01 28.64C108.906 29.072 107.698 29.288 106.386 29.288ZM106.362 25.976C107.114 25.976 107.802 25.848 108.426 25.592C109.066 25.336 109.626 24.968 110.106 24.488C110.586 24.008 110.954 23.44 111.21 22.784C111.482 22.128 111.618 21.4 111.618 20.6C111.618 19.8 111.482 19.072 111.21 18.416C110.954 17.76 110.586 17.192 110.106 16.712C109.642 16.232 109.09 15.864 108.45 15.608C107.81 15.352 107.114 15.224 106.362 15.224C105.61 15.224 104.914 15.352 104.274 15.608C103.65 15.864 103.098 16.232 102.618 16.712C102.138 17.192 101.762 17.76 101.49 18.416C101.234 19.072 101.106 19.8 101.106 20.6C101.106 21.384 101.234 22.112 101.49 22.784C101.762 23.44 102.13 24.008 102.594 24.488C103.074 24.968 103.634 25.336 104.274 25.592C104.914 25.848 105.61 25.976 106.362 25.976ZM1.992 60V43.2H5.208L12.36 55.056H10.656L17.688 43.2H20.88L20.928 60H17.28L17.256 48.792H17.928L12.312 58.224H10.56L4.824 48.792H5.64V60H1.992ZM28.5139 60V43.2H32.4019V60H28.5139ZM39.9889 60V43.2H43.2049L53.1169 55.296H51.5569V43.2H55.3969V60H52.2049L42.2689 47.904H43.8289V60H39.9889ZM60.7637 60L68.2517 43.2H72.0917L79.6037 60H75.5237L69.3797 45.168H70.9157L64.7477 60H60.7637ZM64.5077 56.4L65.5397 53.448H74.1797L75.2357 56.4H64.5077ZM88.4267 56.16L88.2107 51.672L96.2507 43.2H100.571L93.3227 51L91.1627 53.304L88.4267 56.16ZM84.9467 60V43.2H88.8107V60H84.9467ZM96.4427 60L90.4667 52.68L93.0107 49.92L100.979 60H96.4427ZM113.542 60.288C111.158 60.288 109.294 59.624 107.95 58.296C106.606 56.968 105.934 55.072 105.934 52.608V43.2H109.822V52.464C109.822 54.064 110.15 55.216 110.806 55.92C111.462 56.624 112.382 56.976 113.566 56.976C114.75 56.976 115.67 56.624 116.326 55.92C116.982 55.216 117.31 54.064 117.31 52.464V43.2H121.15V52.608C121.15 55.072 120.478 56.968 119.134 58.296C117.79 59.624 115.926 60.288 113.542 60.288ZM136.632 60.288C135.336 60.288 134.128 60.08 133.008 59.664C131.904 59.232 130.944 58.624 130.128 57.84C129.312 57.056 128.672 56.136 128.208 55.08C127.76 54.024 127.536 52.864 127.536 51.6C127.536 50.336 127.76 49.176 128.208 48.12C128.672 47.064 129.312 46.144 130.128 45.36C130.96 44.576 131.928 43.976 133.032 43.56C134.136 43.128 135.344 42.912 136.656 42.912C138.112 42.912 139.424 43.168 140.592 43.68C141.776 44.176 142.768 44.912 143.568 45.888L141.072 48.192C140.496 47.536 139.856 47.048 139.152 46.728C138.448 46.392 137.68 46.224 136.848 46.224C136.064 46.224 135.344 46.352 134.688 46.608C134.032 46.864 133.464 47.232 132.984 47.712C132.504 48.192 132.128 48.76 131.856 49.416C131.6 50.072 131.472 50.8 131.472 51.6C131.472 52.4 131.6 53.128 131.856 53.784C132.128 54.44 132.504 55.008 132.984 55.488C133.464 55.968 134.032 56.336 134.688 56.592C135.344 56.848 136.064 56.976 136.848 56.976C137.68 56.976 138.448 56.816 139.152 56.496C139.856 56.16 140.496 55.656 141.072 54.984L143.568 57.288C142.768 58.264 141.776 59.008 140.592 59.52C139.424 60.032 138.104 60.288 136.632 60.288ZM161.314 43.2H165.202V60H161.314V43.2ZM153.682 60H149.794V43.2H153.682V60ZM161.602 53.112H153.394V49.824H161.602V53.112ZM172.776 60V43.2H176.664V60H172.776ZM1.992 91V74.2H9.264C10.768 74.2 12.064 74.448 13.152 74.944C14.24 75.424 15.08 76.12 15.672 77.032C16.264 77.944 16.56 79.032 16.56 80.296C16.56 81.544 16.264 82.624 15.672 83.536C15.08 84.448 14.24 85.152 13.152 85.648C12.064 86.128 10.768 86.368 9.264 86.368H4.152L5.88 84.616V91H1.992ZM5.88 85.048L4.152 83.2H9.048C10.248 83.2 11.144 82.944 11.736 82.432C12.328 81.92 12.624 81.208 12.624 80.296C12.624 79.368 12.328 78.648 11.736 78.136C11.144 77.624 10.248 77.368 9.048 77.368H4.152L5.88 75.52V85.048ZM31.3301 91.288C30.0021 91.288 28.7701 91.072 27.6341 90.64C26.5141 90.208 25.5381 89.6 24.7061 88.816C23.8901 88.032 23.2501 87.112 22.7861 86.056C22.3381 85 22.1141 83.848 22.1141 82.6C22.1141 81.352 22.3381 80.2 22.7861 79.144C23.2501 78.088 23.8981 77.168 24.7301 76.384C25.5621 75.6 26.5381 74.992 27.6581 74.56C28.7781 74.128 29.9941 73.912 31.3061 73.912C32.6341 73.912 33.8501 74.128 34.9541 74.56C36.0741 74.992 37.0421 75.6 37.8581 76.384C38.6901 77.168 39.3381 78.088 39.8021 79.144C40.2661 80.184 40.4981 81.336 40.4981 82.6C40.4981 83.848 40.2661 85.008 39.8021 86.08C39.3381 87.136 38.6901 88.056 37.8581 88.84C37.0421 89.608 36.0741 90.208 34.9541 90.64C33.8501 91.072 32.6421 91.288 31.3301 91.288ZM31.3061 87.976C32.0581 87.976 32.7461 87.848 33.3701 87.592C34.0101 87.336 34.5701 86.968 35.0501 86.488C35.5301 86.008 35.8981 85.44 36.1541 84.784C36.4261 84.128 36.5621 83.4 36.5621 82.6C36.5621 81.8 36.4261 81.072 36.1541 80.416C35.8981 79.76 35.5301 79.192 35.0501 78.712C34.5861 78.232 34.0341 77.864 33.3941 77.608C32.7541 77.352 32.0581 77.224 31.3061 77.224C30.5541 77.224 29.8581 77.352 29.2181 77.608C28.5941 77.864 28.0421 78.232 27.5621 78.712C27.0821 79.192 26.7061 79.76 26.4341 80.416C26.1781 81.072 26.0501 81.8 26.0501 82.6C26.0501 83.384 26.1781 84.112 26.4341 84.784C26.7061 85.44 27.0741 86.008 27.5381 86.488C28.0181 86.968 28.5781 87.336 29.2181 87.592C29.8581 87.848 30.5541 87.976 31.3061 87.976ZM47.0201 91V74.2H54.2921C55.7961 74.2 57.0921 74.448 58.1801 74.944C59.2681 75.424 60.1081 76.12 60.7001 77.032C61.2921 77.944 61.5881 79.032 61.5881 80.296C61.5881 81.544 61.2921 82.624 60.7001 83.536C60.1081 84.432 59.2681 85.12 58.1801 85.6C57.0921 86.08 55.7961 86.32 54.2921 86.32H49.1801L50.9081 84.616V91H47.0201ZM57.7001 91L53.5001 84.904H57.6521L61.9001 91H57.7001ZM50.9081 85.048L49.1801 83.224H54.0761C55.2761 83.224 56.1721 82.968 56.7641 82.456C57.3561 81.928 57.6521 81.208 57.6521 80.296C57.6521 79.368 57.3561 78.648 56.7641 78.136C56.1721 77.624 55.2761 77.368 54.0761 77.368H49.1801L50.9081 75.52V85.048ZM71.5142 91V77.368H66.1382V74.2H80.7782V77.368H75.4022V91H71.5142ZM90.0701 81.76H98.1341V84.88H90.0701V81.76ZM90.3581 91H86.4701V74.2H99.1661V77.32H90.3581V91ZM113.394 91.288C112.066 91.288 110.834 91.072 109.698 90.64C108.578 90.208 107.602 89.6 106.77 88.816C105.954 88.032 105.314 87.112 104.85 86.056C104.402 85 104.178 83.848 104.178 82.6C104.178 81.352 104.402 80.2 104.85 79.144C105.314 78.088 105.962 77.168 106.794 76.384C107.626 75.6 108.602 74.992 109.722 74.56C110.842 74.128 112.058 73.912 113.37 73.912C114.698 73.912 115.914 74.128 117.018 74.56C118.138 74.992 119.106 75.6 119.922 76.384C120.754 77.168 121.402 78.088 121.866 79.144C122.33 80.184 122.562 81.336 122.562 82.6C122.562 83.848 122.33 85.008 121.866 86.08C121.402 87.136 120.754 88.056 119.922 88.84C119.106 89.608 118.138 90.208 117.018 90.64C115.914 91.072 114.706 91.288 113.394 91.288ZM113.37 87.976C114.122 87.976 114.81 87.848 115.434 87.592C116.074 87.336 116.634 86.968 117.114 86.488C117.594 86.008 117.962 85.44 118.218 84.784C118.49 84.128 118.626 83.4 118.626 82.6C118.626 81.8 118.49 81.072 118.218 80.416C117.962 79.76 117.594 79.192 117.114 78.712C116.65 78.232 116.098 77.864 115.458 77.608C114.818 77.352 114.122 77.224 113.37 77.224C112.618 77.224 111.922 77.352 111.282 77.608C110.658 77.864 110.106 78.232 109.626 78.712C109.146 79.192 108.77 79.76 108.498 80.416C108.242 81.072 108.114 81.8 108.114 82.6C108.114 83.384 108.242 84.112 108.498 84.784C108.77 85.44 109.138 86.008 109.602 86.488C110.082 86.968 110.642 87.336 111.282 87.592C111.922 87.848 112.618 87.976 113.37 87.976ZM129.084 91V74.2H132.972V87.832H141.396V91H129.084ZM147.169 91V74.2H151.057V91H147.169ZM166.804 91.288C165.476 91.288 164.244 91.072 163.108 90.64C161.988 90.208 161.012 89.6 160.18 88.816C159.364 88.032 158.724 87.112 158.26 86.056C157.812 85 157.588 83.848 157.588 82.6C157.588 81.352 157.812 80.2 158.26 79.144C158.724 78.088 159.372 77.168 160.204 76.384C161.036 75.6 162.012 74.992 163.132 74.56C164.252 74.128 165.468 73.912 166.78 73.912C168.108 73.912 169.324 74.128 170.428 74.56C171.548 74.992 172.516 75.6 173.332 76.384C174.164 77.168 174.812 78.088 175.276 79.144C175.74 80.184 175.972 81.336 175.972 82.6C175.972 83.848 175.74 85.008 175.276 86.08C174.812 87.136 174.164 88.056 173.332 88.84C172.516 89.608 171.548 90.208 170.428 90.64C169.324 91.072 168.116 91.288 166.804 91.288ZM166.78 87.976C167.532 87.976 168.22 87.848 168.844 87.592C169.484 87.336 170.044 86.968 170.524 86.488C171.004 86.008 171.372 85.44 171.628 84.784C171.9 84.128 172.036 83.4 172.036 82.6C172.036 81.8 171.9 81.072 171.628 80.416C171.372 79.76 171.004 79.192 170.524 78.712C170.06 78.232 169.508 77.864 168.868 77.608C168.228 77.352 167.532 77.224 166.78 77.224C166.028 77.224 165.332 77.352 164.692 77.608C164.068 77.864 163.516 78.232 163.036 78.712C162.556 79.192 162.18 79.76 161.908 80.416C161.652 81.072 161.524 81.8 161.524 82.6C161.524 83.384 161.652 84.112 161.908 84.784C162.18 85.44 162.548 86.008 163.012 86.488C163.492 86.968 164.052 87.336 164.692 87.592C165.332 87.848 166.028 87.976 166.78 87.976Z" fill="#1E1E1E"/>
<path d="M151.605 16.0684C155.65 56.2398 198.918 4.46328 193.562 58.9179" stroke="#29925F" stroke-width="2"/>
<path d="M172.556 8.50762C175.428 12.0013 175.464 16.7933 172.637 19.2108C169.809 21.6283 165.189 20.7559 162.317 17.2622C159.444 13.7686 159.408 8.97659 162.236 6.55907C165.063 4.14154 169.683 5.01394 172.556 8.50762Z" fill="#CD4A00"/>
<path d="M172.99 19.4735C173.789 22.8491 171.795 26.1902 168.535 26.936C165.275 27.6817 161.984 25.5497 161.185 22.174C160.386 18.7984 162.381 15.4573 165.641 14.7115C168.901 13.9658 172.191 16.0978 172.99 19.4735Z" fill="#CD4A00"/>
<path d="M181.015 5.97769C182.999 8.95342 182.127 13.071 179.067 15.1746C176.007 17.2782 171.917 16.5711 169.933 13.5954C167.949 10.6197 168.821 6.50208 171.881 4.3985C174.942 2.29493 179.031 3.00195 181.015 5.97769Z" fill="#CD4A00"/>
<path d="M183.194 16.155C184.766 20.4117 182.87 25.0342 178.959 26.4795C175.047 27.9249 170.601 25.6458 169.028 21.3891C167.455 17.1324 169.351 12.5099 173.263 11.0646C177.175 9.6192 181.621 11.8983 183.194 16.155Z" fill="#CD4A00"/>
<path d="M145.641 27.0968C146.18 28.6554 145.586 30.2985 144.312 30.7668C143.039 31.2351 141.57 30.3513 141.031 28.7927C140.491 27.2341 141.086 25.5909 142.359 25.1226C143.632 24.6543 145.102 25.5382 145.641 27.0968Z" fill="#CD4A00"/>
<path d="M144.4 30.9014C144.245 32.157 143.14 33.0466 141.931 32.8884C140.722 32.7303 139.867 31.5843 140.021 30.3288C140.176 29.0733 141.281 28.1836 142.49 28.3418C143.7 28.4999 144.555 29.6459 144.4 30.9014Z" fill="#CD4A00"/>
<path d="M148.854 27.3038C149.156 28.5727 148.335 29.8701 147.023 30.2016C145.71 30.533 144.401 29.773 144.1 28.5041C143.798 27.2351 144.618 25.9377 145.931 25.6063C147.244 25.2748 148.553 26.0348 148.854 27.3038Z" fill="#CD4A00"/>
<path d="M148.309 31.0598C148.308 32.7147 147.074 34.0549 145.553 34.0534C144.032 34.0519 142.801 32.7091 142.802 31.0543C142.804 29.3995 144.038 28.0592 145.559 28.0607C147.08 28.0622 148.311 29.405 148.309 31.0598Z" fill="#CD4A00"/>
</svg>
